<mxfile host="app.diagrams.net" modified="2023-10-17T06:06:27.307Z" agent="Mozilla/5.0 (Windows NT 10.0; Win64; x64) AppleWebKit/537.36 (KHTML, like Gecko) Chrome/118.0.0.0 Safari/537.36 Edg/118.0.2088.46" etag="660PnwmPjUq5b6_7vO68" version="22.0.4" type="github">
  <diagram name="PÃ¡gina-1" id="h4PZha3X-RpyvGVEUxOa">
    <mxGraphModel dx="918" dy="521" grid="1" gridSize="10" guides="1" tooltips="1" connect="1" arrows="1" fold="1" page="1" pageScale="1" pageWidth="827" pageHeight="1169" math="0" shadow="0">
      <root>
        <mxCell id="0" />
        <mxCell id="1" parent="0" />
        <mxCell id="uRMWF5CsC-wMtR1UuRz3-10" style="edgeStyle=orthogonalEdgeStyle;rounded=0;orthogonalLoop=1;jettySize=auto;html=1;entryX=0.5;entryY=0;entryDx=0;entryDy=0;endArrow=none;endFill=0;" edge="1" parent="1" source="uRMWF5CsC-wMtR1UuRz3-1" target="uRMWF5CsC-wMtR1UuRz3-2">
          <mxGeometry relative="1" as="geometry">
            <Array as="points">
              <mxPoint x="175" y="120" />
              <mxPoint x="60" y="120" />
            </Array>
          </mxGeometry>
        </mxCell>
        <mxCell id="uRMWF5CsC-wMtR1UuRz3-11" style="edgeStyle=orthogonalEdgeStyle;rounded=0;orthogonalLoop=1;jettySize=auto;html=1;entryX=0.5;entryY=0;entryDx=0;entryDy=0;endArrow=none;endFill=0;" edge="1" parent="1" source="uRMWF5CsC-wMtR1UuRz3-1" target="uRMWF5CsC-wMtR1UuRz3-7">
          <mxGeometry relative="1" as="geometry">
            <Array as="points">
              <mxPoint x="175" y="120" />
              <mxPoint x="120" y="120" />
            </Array>
          </mxGeometry>
        </mxCell>
        <mxCell id="uRMWF5CsC-wMtR1UuRz3-12" style="edgeStyle=orthogonalEdgeStyle;rounded=0;orthogonalLoop=1;jettySize=auto;html=1;entryX=0.5;entryY=0;entryDx=0;entryDy=0;endArrow=none;endFill=0;" edge="1" parent="1" source="uRMWF5CsC-wMtR1UuRz3-1" target="uRMWF5CsC-wMtR1UuRz3-3">
          <mxGeometry relative="1" as="geometry">
            <Array as="points">
              <mxPoint x="175" y="120" />
              <mxPoint x="200" y="120" />
            </Array>
          </mxGeometry>
        </mxCell>
        <mxCell id="uRMWF5CsC-wMtR1UuRz3-13" style="edgeStyle=orthogonalEdgeStyle;rounded=0;orthogonalLoop=1;jettySize=auto;html=1;entryX=0.5;entryY=0;entryDx=0;entryDy=0;endArrow=none;endFill=0;" edge="1" parent="1" source="uRMWF5CsC-wMtR1UuRz3-1" target="uRMWF5CsC-wMtR1UuRz3-4">
          <mxGeometry relative="1" as="geometry">
            <Array as="points">
              <mxPoint x="175" y="120" />
              <mxPoint x="290" y="120" />
            </Array>
          </mxGeometry>
        </mxCell>
        <mxCell id="uRMWF5CsC-wMtR1UuRz3-16" style="edgeStyle=orthogonalEdgeStyle;rounded=0;orthogonalLoop=1;jettySize=auto;html=1;entryX=0.5;entryY=0;entryDx=0;entryDy=0;strokeColor=default;endArrow=none;endFill=0;" edge="1" parent="1" source="uRMWF5CsC-wMtR1UuRz3-1" target="uRMWF5CsC-wMtR1UuRz3-8">
          <mxGeometry relative="1" as="geometry">
            <Array as="points">
              <mxPoint x="175" y="120" />
              <mxPoint x="370" y="120" />
              <mxPoint x="370" y="170" />
            </Array>
          </mxGeometry>
        </mxCell>
        <mxCell id="uRMWF5CsC-wMtR1UuRz3-28" style="edgeStyle=orthogonalEdgeStyle;shape=connector;rounded=0;orthogonalLoop=1;jettySize=auto;html=1;entryX=0.5;entryY=0;entryDx=0;entryDy=0;labelBackgroundColor=default;strokeColor=default;align=center;verticalAlign=middle;fontFamily=Helvetica;fontSize=11;fontColor=default;endArrow=none;endFill=0;" edge="1" parent="1" source="uRMWF5CsC-wMtR1UuRz3-1" target="uRMWF5CsC-wMtR1UuRz3-27">
          <mxGeometry relative="1" as="geometry">
            <Array as="points">
              <mxPoint x="175" y="120" />
              <mxPoint x="448" y="120" />
            </Array>
          </mxGeometry>
        </mxCell>
        <mxCell id="uRMWF5CsC-wMtR1UuRz3-30" style="edgeStyle=orthogonalEdgeStyle;shape=connector;rounded=0;orthogonalLoop=1;jettySize=auto;html=1;entryX=0.5;entryY=0;entryDx=0;entryDy=0;labelBackgroundColor=default;strokeColor=default;align=center;verticalAlign=middle;fontFamily=Helvetica;fontSize=11;fontColor=default;endArrow=none;endFill=0;" edge="1" parent="1" source="uRMWF5CsC-wMtR1UuRz3-1" target="uRMWF5CsC-wMtR1UuRz3-29">
          <mxGeometry relative="1" as="geometry">
            <Array as="points">
              <mxPoint x="175" y="120" />
              <mxPoint x="525" y="120" />
            </Array>
          </mxGeometry>
        </mxCell>
        <mxCell id="uRMWF5CsC-wMtR1UuRz3-33" style="edgeStyle=orthogonalEdgeStyle;shape=connector;rounded=0;orthogonalLoop=1;jettySize=auto;html=1;entryX=0.5;entryY=0;entryDx=0;entryDy=0;labelBackgroundColor=default;strokeColor=default;align=center;verticalAlign=middle;fontFamily=Helvetica;fontSize=11;fontColor=default;endArrow=none;endFill=0;" edge="1" parent="1" source="uRMWF5CsC-wMtR1UuRz3-1" target="uRMWF5CsC-wMtR1UuRz3-31">
          <mxGeometry relative="1" as="geometry">
            <Array as="points">
              <mxPoint x="175" y="250" />
            </Array>
          </mxGeometry>
        </mxCell>
        <mxCell id="uRMWF5CsC-wMtR1UuRz3-34" value="d" style="edgeLabel;html=1;align=center;verticalAlign=middle;resizable=0;points=[];fontSize=11;fontFamily=Helvetica;fontColor=default;" vertex="1" connectable="0" parent="uRMWF5CsC-wMtR1UuRz3-33">
          <mxGeometry x="-0.0369" y="4" relative="1" as="geometry">
            <mxPoint x="-4" as="offset" />
          </mxGeometry>
        </mxCell>
        <mxCell id="uRMWF5CsC-wMtR1UuRz3-37" style="edgeStyle=orthogonalEdgeStyle;shape=connector;rounded=0;orthogonalLoop=1;jettySize=auto;html=1;entryX=0.5;entryY=0;entryDx=0;entryDy=0;labelBackgroundColor=default;strokeColor=default;align=center;verticalAlign=middle;fontFamily=Helvetica;fontSize=11;fontColor=default;endArrow=none;endFill=0;" edge="1" parent="1" source="uRMWF5CsC-wMtR1UuRz3-1" target="uRMWF5CsC-wMtR1UuRz3-36">
          <mxGeometry relative="1" as="geometry" />
        </mxCell>
        <mxCell id="uRMWF5CsC-wMtR1UuRz3-38" value="d" style="edgeLabel;html=1;align=center;verticalAlign=middle;resizable=0;points=[];fontSize=11;fontFamily=Helvetica;fontColor=default;" vertex="1" connectable="0" parent="uRMWF5CsC-wMtR1UuRz3-37">
          <mxGeometry x="0.4892" y="1" relative="1" as="geometry">
            <mxPoint as="offset" />
          </mxGeometry>
        </mxCell>
        <mxCell id="uRMWF5CsC-wMtR1UuRz3-1" value="Usuario" style="rounded=0;whiteSpace=wrap;html=1;" vertex="1" parent="1">
          <mxGeometry x="140" y="70" width="70" height="30" as="geometry" />
        </mxCell>
        <mxCell id="uRMWF5CsC-wMtR1UuRz3-2" value="ID" style="ellipse;whiteSpace=wrap;html=1;rounded=0;" vertex="1" parent="1">
          <mxGeometry x="40" y="170" width="40" height="30" as="geometry" />
        </mxCell>
        <mxCell id="uRMWF5CsC-wMtR1UuRz3-3" value="Username" style="ellipse;whiteSpace=wrap;html=1;rounded=0;" vertex="1" parent="1">
          <mxGeometry x="160" y="170" width="80" height="30" as="geometry" />
        </mxCell>
        <mxCell id="uRMWF5CsC-wMtR1UuRz3-4" value="Password" style="ellipse;whiteSpace=wrap;html=1;rounded=0;" vertex="1" parent="1">
          <mxGeometry x="250" y="170" width="80" height="30" as="geometry" />
        </mxCell>
        <mxCell id="uRMWF5CsC-wMtR1UuRz3-7" value="Email" style="ellipse;whiteSpace=wrap;html=1;rounded=0;" vertex="1" parent="1">
          <mxGeometry x="90" y="170" width="60" height="30" as="geometry" />
        </mxCell>
        <mxCell id="uRMWF5CsC-wMtR1UuRz3-8" value="Telefono" style="ellipse;whiteSpace=wrap;html=1;rounded=0;" vertex="1" parent="1">
          <mxGeometry x="340" y="170" width="70" height="30" as="geometry" />
        </mxCell>
        <mxCell id="uRMWF5CsC-wMtR1UuRz3-23" style="edgeStyle=orthogonalEdgeStyle;rounded=0;orthogonalLoop=1;jettySize=auto;html=1;entryX=0.5;entryY=0;entryDx=0;entryDy=0;endArrow=none;endFill=0;" edge="1" parent="1" source="uRMWF5CsC-wMtR1UuRz3-17" target="uRMWF5CsC-wMtR1UuRz3-18">
          <mxGeometry relative="1" as="geometry" />
        </mxCell>
        <mxCell id="uRMWF5CsC-wMtR1UuRz3-24" style="edgeStyle=orthogonalEdgeStyle;shape=connector;rounded=0;orthogonalLoop=1;jettySize=auto;html=1;labelBackgroundColor=default;strokeColor=default;align=center;verticalAlign=middle;fontFamily=Helvetica;fontSize=11;fontColor=default;endArrow=none;endFill=0;" edge="1" parent="1" source="uRMWF5CsC-wMtR1UuRz3-17" target="uRMWF5CsC-wMtR1UuRz3-21">
          <mxGeometry relative="1" as="geometry" />
        </mxCell>
        <mxCell id="uRMWF5CsC-wMtR1UuRz3-17" value="Rol" style="rounded=0;whiteSpace=wrap;html=1;" vertex="1" parent="1">
          <mxGeometry x="690" y="70" width="70" height="25" as="geometry" />
        </mxCell>
        <mxCell id="uRMWF5CsC-wMtR1UuRz3-18" value="ID" style="ellipse;whiteSpace=wrap;html=1;rounded=0;" vertex="1" parent="1">
          <mxGeometry x="680" y="170" width="30" height="30" as="geometry" />
        </mxCell>
        <mxCell id="uRMWF5CsC-wMtR1UuRz3-21" value="Nombre&amp;nbsp;" style="ellipse;whiteSpace=wrap;html=1;rounded=0;" vertex="1" parent="1">
          <mxGeometry x="730" y="170" width="60" height="30" as="geometry" />
        </mxCell>
        <mxCell id="uRMWF5CsC-wMtR1UuRz3-27" value="Nombre" style="ellipse;whiteSpace=wrap;html=1;fontFamily=Helvetica;fontSize=11;fontColor=default;" vertex="1" parent="1">
          <mxGeometry x="413" y="170" width="70" height="30" as="geometry" />
        </mxCell>
        <mxCell id="uRMWF5CsC-wMtR1UuRz3-29" value="Apellido" style="ellipse;whiteSpace=wrap;html=1;fontFamily=Helvetica;fontSize=11;fontColor=default;" vertex="1" parent="1">
          <mxGeometry x="490" y="170" width="70" height="30" as="geometry" />
        </mxCell>
        <mxCell id="uRMWF5CsC-wMtR1UuRz3-35" style="edgeStyle=orthogonalEdgeStyle;shape=connector;rounded=0;orthogonalLoop=1;jettySize=auto;html=1;entryX=0.5;entryY=0;entryDx=0;entryDy=0;labelBackgroundColor=default;strokeColor=default;align=center;verticalAlign=middle;fontFamily=Helvetica;fontSize=11;fontColor=default;endArrow=none;endFill=0;" edge="1" parent="1" source="uRMWF5CsC-wMtR1UuRz3-31" target="uRMWF5CsC-wMtR1UuRz3-32">
          <mxGeometry relative="1" as="geometry" />
        </mxCell>
        <mxCell id="uRMWF5CsC-wMtR1UuRz3-31" value="Paciente" style="rounded=0;whiteSpace=wrap;html=1;fontFamily=Helvetica;fontSize=11;fontColor=default;" vertex="1" parent="1">
          <mxGeometry x="50" y="270" width="70" height="20" as="geometry" />
        </mxCell>
        <mxCell id="uRMWF5CsC-wMtR1UuRz3-32" value="EPS" style="ellipse;whiteSpace=wrap;html=1;fontFamily=Helvetica;fontSize=11;fontColor=default;" vertex="1" parent="1">
          <mxGeometry x="65" y="300" width="40" height="30" as="geometry" />
        </mxCell>
        <mxCell id="uRMWF5CsC-wMtR1UuRz3-45" style="edgeStyle=orthogonalEdgeStyle;shape=connector;rounded=0;orthogonalLoop=1;jettySize=auto;html=1;entryX=0.5;entryY=0;entryDx=0;entryDy=0;labelBackgroundColor=default;strokeColor=default;align=center;verticalAlign=middle;fontFamily=Helvetica;fontSize=11;fontColor=default;endArrow=none;endFill=0;" edge="1" parent="1" source="uRMWF5CsC-wMtR1UuRz3-36" target="uRMWF5CsC-wMtR1UuRz3-44">
          <mxGeometry relative="1" as="geometry" />
        </mxCell>
        <mxCell id="uRMWF5CsC-wMtR1UuRz3-36" value="Cuidador" style="rounded=0;whiteSpace=wrap;html=1;fontFamily=Helvetica;fontSize=11;fontColor=default;" vertex="1" parent="1">
          <mxGeometry x="140" y="270" width="70" height="20" as="geometry" />
        </mxCell>
        <mxCell id="uRMWF5CsC-wMtR1UuRz3-50" style="edgeStyle=orthogonalEdgeStyle;shape=connector;rounded=0;orthogonalLoop=1;jettySize=auto;html=1;entryX=0.5;entryY=0;entryDx=0;entryDy=0;labelBackgroundColor=default;strokeColor=default;align=center;verticalAlign=middle;fontFamily=Helvetica;fontSize=11;fontColor=default;endArrow=none;endFill=0;" edge="1" parent="1" source="uRMWF5CsC-wMtR1UuRz3-39" target="uRMWF5CsC-wMtR1UuRz3-49">
          <mxGeometry relative="1" as="geometry">
            <Array as="points">
              <mxPoint x="570" y="350" />
              <mxPoint x="468" y="350" />
            </Array>
          </mxGeometry>
        </mxCell>
        <mxCell id="uRMWF5CsC-wMtR1UuRz3-51" style="edgeStyle=orthogonalEdgeStyle;shape=connector;rounded=0;orthogonalLoop=1;jettySize=auto;html=1;entryX=0.5;entryY=0;entryDx=0;entryDy=0;labelBackgroundColor=default;strokeColor=default;align=center;verticalAlign=middle;fontFamily=Helvetica;fontSize=11;fontColor=default;endArrow=none;endFill=0;" edge="1" parent="1" source="uRMWF5CsC-wMtR1UuRz3-39" target="uRMWF5CsC-wMtR1UuRz3-40">
          <mxGeometry relative="1" as="geometry" />
        </mxCell>
        <mxCell id="uRMWF5CsC-wMtR1UuRz3-52" style="edgeStyle=orthogonalEdgeStyle;shape=connector;rounded=0;orthogonalLoop=1;jettySize=auto;html=1;entryX=0.5;entryY=0;entryDx=0;entryDy=0;labelBackgroundColor=default;strokeColor=default;align=center;verticalAlign=middle;fontFamily=Helvetica;fontSize=11;fontColor=default;endArrow=none;endFill=0;" edge="1" parent="1" source="uRMWF5CsC-wMtR1UuRz3-39" target="uRMWF5CsC-wMtR1UuRz3-41">
          <mxGeometry relative="1" as="geometry">
            <Array as="points">
              <mxPoint x="570" y="350" />
              <mxPoint x="650" y="350" />
            </Array>
          </mxGeometry>
        </mxCell>
        <mxCell id="uRMWF5CsC-wMtR1UuRz3-53" style="edgeStyle=orthogonalEdgeStyle;shape=connector;rounded=0;orthogonalLoop=1;jettySize=auto;html=1;entryX=0.5;entryY=0;entryDx=0;entryDy=0;labelBackgroundColor=default;strokeColor=default;align=center;verticalAlign=middle;fontFamily=Helvetica;fontSize=11;fontColor=default;endArrow=none;endFill=0;" edge="1" parent="1" source="uRMWF5CsC-wMtR1UuRz3-39" target="uRMWF5CsC-wMtR1UuRz3-43">
          <mxGeometry relative="1" as="geometry">
            <Array as="points">
              <mxPoint x="570" y="350" />
              <mxPoint x="498" y="350" />
            </Array>
          </mxGeometry>
        </mxCell>
        <mxCell id="uRMWF5CsC-wMtR1UuRz3-54" style="edgeStyle=orthogonalEdgeStyle;shape=connector;rounded=0;orthogonalLoop=1;jettySize=auto;html=1;entryX=0.5;entryY=0;entryDx=0;entryDy=0;labelBackgroundColor=default;strokeColor=default;align=center;verticalAlign=middle;fontFamily=Helvetica;fontSize=11;fontColor=default;endArrow=none;endFill=0;" edge="1" parent="1" source="uRMWF5CsC-wMtR1UuRz3-39" target="uRMWF5CsC-wMtR1UuRz3-46">
          <mxGeometry relative="1" as="geometry">
            <Array as="points">
              <mxPoint x="600" y="360" />
              <mxPoint x="600" y="360" />
            </Array>
          </mxGeometry>
        </mxCell>
        <mxCell id="uRMWF5CsC-wMtR1UuRz3-55" style="edgeStyle=orthogonalEdgeStyle;shape=connector;rounded=0;orthogonalLoop=1;jettySize=auto;html=1;labelBackgroundColor=default;strokeColor=default;align=center;verticalAlign=middle;fontFamily=Helvetica;fontSize=11;fontColor=default;endArrow=none;endFill=0;" edge="1" parent="1" source="uRMWF5CsC-wMtR1UuRz3-39" target="uRMWF5CsC-wMtR1UuRz3-47">
          <mxGeometry relative="1" as="geometry" />
        </mxCell>
        <mxCell id="uRMWF5CsC-wMtR1UuRz3-56" style="edgeStyle=orthogonalEdgeStyle;shape=connector;rounded=0;orthogonalLoop=1;jettySize=auto;html=1;entryX=0.5;entryY=0;entryDx=0;entryDy=0;labelBackgroundColor=default;strokeColor=default;align=center;verticalAlign=middle;fontFamily=Helvetica;fontSize=11;fontColor=default;endArrow=none;endFill=0;" edge="1" parent="1" source="uRMWF5CsC-wMtR1UuRz3-39" target="uRMWF5CsC-wMtR1UuRz3-48">
          <mxGeometry relative="1" as="geometry" />
        </mxCell>
        <mxCell id="uRMWF5CsC-wMtR1UuRz3-57" style="edgeStyle=orthogonalEdgeStyle;shape=connector;rounded=0;orthogonalLoop=1;jettySize=auto;html=1;labelBackgroundColor=default;strokeColor=default;align=center;verticalAlign=middle;fontFamily=Helvetica;fontSize=11;fontColor=default;endArrow=none;endFill=0;" edge="1" parent="1" source="uRMWF5CsC-wMtR1UuRz3-39" target="uRMWF5CsC-wMtR1UuRz3-42">
          <mxGeometry relative="1" as="geometry" />
        </mxCell>
        <mxCell id="uRMWF5CsC-wMtR1UuRz3-39" value="HistoriaClinica" style="rounded=0;whiteSpace=wrap;html=1;fontFamily=Helvetica;fontSize=11;fontColor=default;" vertex="1" parent="1">
          <mxGeometry x="510" y="280" width="120" height="60" as="geometry" />
        </mxCell>
        <mxCell id="uRMWF5CsC-wMtR1UuRz3-40" value="FNacimiento" style="ellipse;whiteSpace=wrap;html=1;fontFamily=Helvetica;fontSize=11;fontColor=default;" vertex="1" parent="1">
          <mxGeometry x="530" y="362.5" width="80" height="40" as="geometry" />
        </mxCell>
        <mxCell id="uRMWF5CsC-wMtR1UuRz3-41" value="Peso" style="ellipse;whiteSpace=wrap;html=1;fontFamily=Helvetica;fontSize=11;fontColor=default;" vertex="1" parent="1">
          <mxGeometry x="630" y="365" width="40" height="30" as="geometry" />
        </mxCell>
        <mxCell id="uRMWF5CsC-wMtR1UuRz3-42" value="RH" style="ellipse;whiteSpace=wrap;html=1;fontFamily=Helvetica;fontSize=11;fontColor=default;" vertex="1" parent="1">
          <mxGeometry x="730" y="420" width="45" height="20" as="geometry" />
        </mxCell>
        <mxCell id="uRMWF5CsC-wMtR1UuRz3-43" value="Alergias" style="ellipse;whiteSpace=wrap;html=1;fontFamily=Helvetica;fontSize=11;fontColor=default;" vertex="1" parent="1">
          <mxGeometry x="473" y="410" width="50" height="30" as="geometry" />
        </mxCell>
        <mxCell id="uRMWF5CsC-wMtR1UuRz3-44" value="Tipo" style="ellipse;whiteSpace=wrap;html=1;fontFamily=Helvetica;fontSize=11;fontColor=default;" vertex="1" parent="1">
          <mxGeometry x="160" y="300" width="35" height="30" as="geometry" />
        </mxCell>
        <mxCell id="uRMWF5CsC-wMtR1UuRz3-46" value="EnfermedadesCronicas" style="ellipse;whiteSpace=wrap;html=1;fontFamily=Helvetica;fontSize=11;fontColor=default;" vertex="1" parent="1">
          <mxGeometry x="540" y="410" width="120" height="40" as="geometry" />
        </mxCell>
        <mxCell id="uRMWF5CsC-wMtR1UuRz3-47" value="Cirugias" style="ellipse;whiteSpace=wrap;html=1;fontFamily=Helvetica;fontSize=11;fontColor=default;" vertex="1" parent="1">
          <mxGeometry x="490" y="465" width="70" height="25" as="geometry" />
        </mxCell>
        <mxCell id="uRMWF5CsC-wMtR1UuRz3-48" value="MedicamentosTomados" style="ellipse;whiteSpace=wrap;html=1;fontFamily=Helvetica;fontSize=11;fontColor=default;shadow=0;sketch=1;curveFitting=1;jiggle=2;" vertex="1" parent="1">
          <mxGeometry x="600" y="460" width="140" height="35" as="geometry" />
        </mxCell>
        <mxCell id="uRMWF5CsC-wMtR1UuRz3-49" value="ID" style="ellipse;whiteSpace=wrap;html=1;fontFamily=Helvetica;fontSize=11;fontColor=default;" vertex="1" parent="1">
          <mxGeometry x="453" y="370" width="30" height="25" as="geometry" />
        </mxCell>
      </root>
    </mxGraphModel>
  </diagram>
</mxfile>
